####
#
# OBJ File Generated by Meshlab
#
####
# Object spherecap.obj
#
# Vertices: 217
# Faces: 384
#
####
vn -0.0000000 -0.0000000 1.0000000
v -0.0000000 0.0000000 1.0000000
vn 0.4561151 0.0000000 0.8899208
v 0.1000000 0.0000000 0.0000000
vn 0.0562672 0.9739962 0.2194664
v 0.0500000 0.8660254 0.0000000
vn -0.0562672 0.9739962 0.2194664
v -0.0500000 0.8660254 0.0000000
vn -0.4561153 0.0000000 0.8899207
v -0.1000000 0.0000000 0.0000000
vn -0.0562672 -0.9739962 0.2194664
v -0.0500000 -0.8660254 0.0000000
vn 0.0562672 -0.9739962 0.2194664
v 0.0500000 -0.8660254 0.0000000
vn 0.0673799 -0.0000001 0.9977274
v 0.0552966 -0.0000000 0.8332040
vn 0.1503296 0.8684174 0.4724959
v 0.0866025 0.5000000 0.0000000
vn 0.0291352 0.5046368 0.8628400
v 0.0276483 0.4788824 0.8332041
vn 0.0000000 0.9648952 0.2626351
v 0.0000000 1.0000000 0.0000000
vn -0.0291352 0.5046368 0.8628400
v -0.0276483 0.4788824 0.8332041
vn -0.1503297 0.8684175 0.4724957
v -0.0866025 0.5000000 0.0000000
vn -0.0673799 0.0000002 0.9977274
v -0.0552966 0.0000000 0.8332040
vn -0.1503296 -0.8684174 0.4724959
v -0.0866025 -0.5000000 0.0000000
vn -0.0291352 -0.5046368 0.8628400
v -0.0276483 -0.4788824 0.8332041
vn 0.0000000 -0.9648952 0.2626351
v 0.0000000 -1.0000000 0.0000000
vn 0.0291352 -0.5046368 0.8628400
v 0.0276483 -0.4788824 0.8332041
vn 0.1503297 -0.8684175 0.4724957
v 0.0866025 -0.5000000 0.0000000
vn 0.1003951 0.3603215 0.9274099
v 0.0696130 0.2465055 0.6742689
vn 0.0702729 0.5950463 0.8006133
v 0.0561545 0.4796133 0.6742689
vn 0.0465480 0.2687450 0.9620860
v 0.0417069 0.2407946 0.8763971
vn 0.0135589 0.7493135 0.6620767
v 0.0134585 0.7261188 0.6742689
vn -0.0135589 0.7493134 0.6620768
v -0.0134585 0.7261187 0.6742689
vn -0.0000000 0.4877200 0.8730001
v -0.0000000 0.4815892 0.8763971
vn -0.0702729 0.5950465 0.8006132
v -0.0561545 0.4796133 0.6742688
vn -0.1003951 0.3603215 0.9274100
v -0.0696130 0.2465055 0.6742688
vn -0.0465480 0.2687448 0.9620861
v -0.0417069 0.2407946 0.8763971
vn -0.1003951 -0.3603215 0.9274099
v -0.0696130 -0.2465055 0.6742689
vn -0.0702729 -0.5950463 0.8006133
v -0.0561545 -0.4796133 0.6742689
vn -0.0465480 -0.2687450 0.9620860
v -0.0417069 -0.2407946 0.8763971
vn -0.0135589 -0.7493135 0.6620767
v -0.0134585 -0.7261188 0.6742689
vn 0.0135589 -0.7493134 0.6620768
v 0.0134585 -0.7261187 0.6742689
vn 0.0000000 -0.4877200 0.8730001
v 0.0000000 -0.4815892 0.8763971
vn 0.0702729 -0.5950465 0.8006132
v 0.0561545 -0.4796133 0.6742688
vn 0.1003951 -0.3603214 0.9274100
v 0.0696130 -0.2465055 0.6742688
vn 0.0465480 -0.2687449 0.9620861
v 0.0417069 -0.2407946 0.8763971
vn 0.0291776 -0.0000001 0.9995742
v 0.0277323 -0.0000000 0.9607769
vn 0.0141485 0.2450588 0.9694050
v 0.0138661 0.2401687 0.9607769
vn 0.1460322 0.0000000 0.9892799
v 0.0814626 -0.0000000 0.5799860
vn 0.2505172 0.7066631 0.6617163
v 0.0965926 0.2588190 0.0000000
vn 0.0960213 0.9352639 0.3406779
v 0.0707107 0.7071068 0.0000000
vn 0.0454278 0.7868330 0.6154919
v 0.0407313 0.7054872 0.5799862
vn -0.0141485 0.2450588 0.9694050
v -0.0138661 0.2401687 0.9607769
vn 0.0245534 0.9669901 0.2536286
v 0.0258819 0.9659259 0.0000000
vn -0.0245534 0.9669901 0.2536286
v -0.0258819 0.9659259 0.0000000
vn -0.0454278 0.7868329 0.6154919
v -0.0407313 0.7054872 0.5799860
vn -0.0291776 0.0000001 0.9995742
v -0.0277323 0.0000000 0.9607768
vn -0.0960213 0.9352639 0.3406778
v -0.0707107 0.7071068 0.0000000
vn -0.2505174 0.7066631 0.6617162
v -0.0965926 0.2588190 0.0000000
vn -0.1460323 -0.0000002 0.9892799
v -0.0814627 0.0000000 0.5799859
vn -0.0141485 -0.2450588 0.9694050
v -0.0138661 -0.2401687 0.9607769
vn -0.2505172 -0.7066631 0.6617163
v -0.0965926 -0.2588190 0.0000000
vn -0.0960213 -0.9352639 0.3406779
v -0.0707107 -0.7071068 0.0000000
vn -0.0454278 -0.7868330 0.6154919
v -0.0407313 -0.7054872 0.5799862
vn 0.0141485 -0.2450588 0.9694050
v 0.0138661 -0.2401687 0.9607769
vn -0.0245534 -0.9669901 0.2536286
v -0.0258819 -0.9659259 0.0000000
vn 0.0245534 -0.9669901 0.2536286
v 0.0258819 -0.9659259 0.0000000
vn 0.0454278 -0.7868329 0.6154919
v 0.0407313 -0.7054872 0.5799860
vn 0.0960213 -0.9352639 0.3406778
v 0.0707107 -0.7071068 0.0000000
vn 0.2505174 -0.7066631 0.6617163
v 0.0965926 -0.2588190 0.0000000
vn 0.0844233 0.4874184 0.8690777
v 0.0631785 0.3647615 0.6839564
vn 0.0571320 0.4209802 0.9052688
v 0.0488630 0.3608586 0.7943685
vn 0.0683683 0.2989093 0.9518293
v 0.0556828 0.2427372 0.7943684
vn -0.0000000 0.7464367 0.6654565
v -0.0000000 0.7295229 0.6839564
vn -0.0068770 0.6145610 0.7888393
v -0.0068197 0.6035957 0.7943686
vn 0.0068769 0.6145610 0.7888394
v 0.0068197 0.6035957 0.7943686
vn -0.0844233 0.4874183 0.8690777
v -0.0631785 0.3647615 0.6839563
vn -0.0683684 0.2989090 0.9518294
v -0.0556828 0.2427372 0.7943684
vn -0.0571320 0.4209803 0.9052688
v -0.0488631 0.3608586 0.7943685
vn -0.0844233 -0.4874184 0.8690777
v -0.0631785 -0.3647615 0.6839564
vn -0.0571320 -0.4209802 0.9052688
v -0.0488630 -0.3608586 0.7943685
vn -0.0683683 -0.2989093 0.9518293
v -0.0556828 -0.2427372 0.7943684
vn 0.0000000 -0.7464367 0.6654565
v 0.0000000 -0.7295229 0.6839564
vn 0.0068770 -0.6145610 0.7888393
v 0.0068197 -0.6035957 0.7943686
vn -0.0068769 -0.6145610 0.7888394
v -0.0068197 -0.6035957 0.7943686
vn 0.0844233 -0.4874183 0.8690777
v 0.0631785 -0.3647615 0.6839563
vn 0.0683684 -0.2989091 0.9518294
v 0.0556828 -0.2427372 0.7943684
vn 0.0571320 -0.4209803 0.9052688
v 0.0488631 -0.3608586 0.7943685
vn 0.0374138 0.1299058 0.9908202
v 0.0346806 0.1203477 0.9301841
vn 0.0292388 0.2528492 0.9670638
v 0.0277627 0.2401685 0.9301841
vn 0.0214954 0.1241040 0.9920364
v 0.0208053 0.1201193 0.9707139
vn 0.2347514 0.4690255 0.8514147
v 0.0881265 0.1277098 0.4550404
vn 0.1869681 0.6298076 0.7539133
v 0.0833302 0.2521089 0.4919845
vn 0.1194344 0.2046317 0.9715253
v 0.0755775 0.1248053 0.6428275
vn 0.0978243 0.8616206 0.4980366
v 0.0634984 0.5956063 0.4919845
vn 0.0791385 0.9010731 0.4263853
v 0.0551233 0.6993433 0.4550403
vn 0.0574250 0.6911389 0.7204369
v 0.0485972 0.5921180 0.6428276
vn 0.0070052 0.3654119 0.9308196
v 0.0069179 0.3605162 0.9301841
vn -0.0070052 0.3654119 0.9308196
v -0.0069179 0.3605162 0.9301841
vn -0.0000000 0.2427187 0.9700967
v -0.0000000 0.2402386 0.9707139
vn 0.0316744 0.9357108 0.3513433
v 0.0330033 0.8270531 0.4550402
vn 0.0187559 0.9315532 0.3631210
v 0.0198318 0.8477151 0.4919847
vn 0.0280746 0.7598631 0.6494766
v 0.0269803 0.7169234 0.6428276
vn -0.0187559 0.9315532 0.3631210
v -0.0198318 0.8477151 0.4919849
vn -0.0316744 0.9357108 0.3513433
v -0.0330033 0.8270531 0.4550403
vn -0.0280746 0.7598630 0.6494767
v -0.0269803 0.7169234 0.6428275
vn -0.0292388 0.2528491 0.9670638
v -0.0277627 0.2401685 0.9301841
vn -0.0374139 0.1299057 0.9908202
v -0.0346806 0.1203477 0.9301841
vn -0.0214955 0.1241038 0.9920364
v -0.0208053 0.1201193 0.9707139
vn -0.0791385 0.9010731 0.4263853
v -0.0551233 0.6993433 0.4550402
vn -0.0978242 0.8616207 0.4980364
v -0.0634984 0.5956063 0.4919845
vn -0.0574250 0.6911390 0.7204369
v -0.0485972 0.5921181 0.6428275
vn -0.1869682 0.6298075 0.7539135
v -0.0833302 0.2521089 0.4919845
vn -0.2347515 0.4690255 0.8514147
v -0.0881265 0.1277098 0.4550402
vn -0.1194344 0.2046318 0.9715253
v -0.0755775 0.1248053 0.6428275
vn -0.0374138 -0.1299057 0.9908202
v -0.0346806 -0.1203477 0.9301841
vn -0.0292388 -0.2528492 0.9670638
v -0.0277627 -0.2401685 0.9301841
vn -0.0214954 -0.1241038 0.9920364
v -0.0208053 -0.1201193 0.9707139
vn -0.2347514 -0.4690256 0.8514146
v -0.0881265 -0.1277098 0.4550402
vn -0.1869681 -0.6298075 0.7539135
v -0.0833302 -0.2521089 0.4919845
vn -0.1194344 -0.2046318 0.9715253
v -0.0755775 -0.1248053 0.6428275
vn -0.0978243 -0.8616206 0.4980366
v -0.0634984 -0.5956063 0.4919845
vn -0.0791385 -0.9010731 0.4263853
v -0.0551233 -0.6993433 0.4550403
vn -0.0574250 -0.6911389 0.7204369
v -0.0485972 -0.5921180 0.6428276
vn -0.0070052 -0.3654119 0.9308196
v -0.0069179 -0.3605162 0.9301841
vn 0.0070052 -0.3654119 0.9308196
v 0.0069179 -0.3605162 0.9301841
vn 0.0000000 -0.2427187 0.9700967
v 0.0000000 -0.2402386 0.9707139
vn -0.0316744 -0.9357108 0.3513433
v -0.0330033 -0.8270531 0.4550402
vn -0.0187559 -0.9315532 0.3631210
v -0.0198318 -0.8477151 0.4919847
vn -0.0280746 -0.7598631 0.6494766
v -0.0269803 -0.7169234 0.6428276
vn 0.0187559 -0.9315532 0.3631210
v 0.0198318 -0.8477151 0.4919849
vn 0.0316744 -0.9357108 0.3513433
v 0.0330033 -0.8270531 0.4550403
vn 0.0280746 -0.7598630 0.6494767
v 0.0269803 -0.7169234 0.6428275
vn 0.0292388 -0.2528491 0.9670638
v 0.0277627 -0.2401685 0.9301841
vn 0.0374139 -0.1299058 0.9908202
v 0.0346806 -0.1203477 0.9301841
vn 0.0214955 -0.1241040 0.9920364
v 0.0208053 -0.1201193 0.9707139
vn 0.0791385 -0.9010731 0.4263853
v 0.0551233 -0.6993433 0.4550402
vn 0.0978242 -0.8616207 0.4980364
v 0.0634984 -0.5956063 0.4919845
vn 0.0574250 -0.6911390 0.7204369
v 0.0485972 -0.5921181 0.6428275
vn 0.1869681 -0.6298075 0.7539135
v 0.0833302 -0.2521089 0.4919845
vn 0.2347515 -0.4690252 0.8514148
v 0.0881265 -0.1277098 0.4550404
vn 0.1194344 -0.2046317 0.9715253
v 0.0755775 -0.1248053 0.6428275
vn 0.0810609 0.1613353 0.9835650
v 0.0622321 0.1225143 0.7731153
vn 0.0562919 0.1408701 0.9884264
v 0.0485242 0.1210589 0.8659592
vn 0.1498912 0.7372907 0.6587375
v 0.0776965 0.3721384 0.5077783
vn 0.1209165 0.8100262 0.5737917
v 0.0710764 0.4868020 0.5077783
vn 0.0467969 0.5334945 0.8445080
v 0.0417261 0.4776883 0.7731154
vn 0.0375807 0.3884850 0.9206884
v 0.0347461 0.3597021 0.8659592
vn 0.0211241 0.6225278 0.7823126
v 0.0205060 0.6002026 0.7731155
vn 0.0140479 0.4915155 0.8707555
v 0.0137781 0.4807611 0.8659592
vn 0.0061902 0.9299823 0.3675521
v 0.0066201 0.8589404 0.5077783
vn -0.0061902 0.9299823 0.3675522
v -0.0066201 0.8589404 0.5077783
vn -0.0211241 0.6225280 0.7823124
v -0.0205060 0.6002026 0.7731154
vn -0.0140479 0.4915155 0.8707556
v -0.0137781 0.4807610 0.8659592
vn -0.0467969 0.5334947 0.8445079
v -0.0417261 0.4776883 0.7731154
vn -0.0375807 0.3884850 0.9206884
v -0.0347461 0.3597021 0.8659592
vn -0.1209164 0.8100262 0.5737916
v -0.0710764 0.4868020 0.5077783
vn -0.1498912 0.7372906 0.6587376
v -0.0776965 0.3721384 0.5077783
vn -0.0810609 0.1613354 0.9835650
v -0.0622321 0.1225143 0.7731153
vn -0.0562919 0.1408700 0.9884264
v -0.0485242 0.1210589 0.8659592
vn -0.0810609 -0.1613352 0.9835650
v -0.0622321 -0.1225143 0.7731153
vn -0.0562919 -0.1408700 0.9884264
v -0.0485242 -0.1210589 0.8659592
vn -0.1498912 -0.7372907 0.6587375
v -0.0776965 -0.3721384 0.5077783
vn -0.1209165 -0.8100262 0.5737917
v -0.0710764 -0.4868020 0.5077783
vn -0.0467969 -0.5334945 0.8445080
v -0.0417261 -0.4776883 0.7731154
vn -0.0375807 -0.3884850 0.9206885
v -0.0347461 -0.3597021 0.8659592
vn -0.0211241 -0.6225278 0.7823126
v -0.0205060 -0.6002026 0.7731155
vn -0.0140479 -0.4915155 0.8707556
v -0.0137781 -0.4807611 0.8659592
vn -0.0061902 -0.9299823 0.3675521
v -0.0066201 -0.8589404 0.5077783
vn 0.0061902 -0.9299823 0.3675522
v 0.0066201 -0.8589404 0.5077783
vn 0.0211241 -0.6225280 0.7823124
v 0.0205060 -0.6002026 0.7731154
vn 0.0140479 -0.4915155 0.8707556
v 0.0137781 -0.4807610 0.8659592
vn 0.0467969 -0.5334947 0.8445079
v 0.0417261 -0.4776883 0.7731154
vn 0.0375807 -0.3884850 0.9206884
v 0.0347461 -0.3597021 0.8659592
vn 0.1209164 -0.8100262 0.5737916
v 0.0710764 -0.4868020 0.5077783
vn 0.1498912 -0.7372906 0.6587376
v 0.0776965 -0.3721384 0.5077783
vn 0.0810609 -0.1613354 0.9835650
v 0.0622321 -0.1225143 0.7731153
vn 0.0562919 -0.1408701 0.9884264
v 0.0485242 -0.1210589 0.8659592
vn 0.0141433 0.0000000 0.9999000
v 0.0138671 -0.0000000 0.9903386
vn 0.0070197 0.1215853 0.9925562
v 0.0069336 0.1200928 0.9903386
vn 0.0462716 -0.0000001 0.9989289
v 0.0415695 -0.0000000 0.9095044
vn 0.0214906 0.3722275 0.9278927
v 0.0207847 0.3600020 0.9095044
vn 0.0966377 -0.0000001 0.9953197
v 0.0687249 -0.0000000 0.7264218
vn 0.3306651 0.0000000 0.9437482
v 0.0926657 -0.0000000 0.3759078
vn 0.3359374 0.5424086 0.7700253
v 0.0991445 0.1305262 0.0003453
vn 0.1920066 0.8071432 0.5582593
v 0.0923880 0.3826834 0.0003453
vn 0.0371309 0.6431259 0.7648597
v 0.0343625 0.5951752 0.7264218
vn 0.1195867 0.9076990 0.4022206
v 0.0793353 0.6087614 0.0000000
vn 0.0779754 0.9570618 0.2791999
v 0.0608761 0.7933533 0.0000000
vn 0.0547715 0.9483339 0.3125110
v 0.0463329 0.8025086 0.3759078
vn -0.0070197 0.1215851 0.9925562
v -0.0069336 0.1200928 0.9903386
vn -0.0214906 0.3722275 0.9278927
v -0.0207847 0.3600020 0.9095044
vn 0.0369491 0.9712569 0.2351486
v 0.0382683 0.9238795 0.0003453
vn 0.0121939 0.9653183 0.2607911
v 0.0130526 0.9914448 0.0003453
vn -0.0371309 0.6431262 0.7648595
v -0.0343625 0.5951752 0.7264218
vn -0.0121939 0.9653183 0.2607910
v -0.0130526 0.9914448 0.0003453
vn -0.0369491 0.9712569 0.2351487
v -0.0382683 0.9238795 0.0003453
vn -0.0547715 0.9483338 0.3125110
v -0.0463329 0.8025086 0.3759078
vn -0.0141433 -0.0000000 0.9999000
v -0.0138671 0.0000000 0.9903385
vn -0.0462716 0.0000002 0.9989289
v -0.0415695 0.0000000 0.9095044
vn -0.0779754 0.9570618 0.2791998
v -0.0608761 0.7933533 0.0000000
vn -0.1195867 0.9076992 0.4022204
v -0.0793353 0.6087614 0.0000000
vn -0.0966377 0.0000000 0.9953197
v -0.0687249 0.0000000 0.7264217
vn -0.1920067 0.8071433 0.5582591
v -0.0923880 0.3826834 0.0003453
vn -0.3359374 0.5424089 0.7700252
v -0.0991445 0.1305262 0.0003453
vn -0.3306651 0.0000000 0.9437482
v -0.0926657 0.0000000 0.3759077
vn -0.0070197 -0.1215852 0.9925562
v -0.0069336 -0.1200928 0.9903386
vn -0.0214906 -0.3722275 0.9278927
v -0.0207847 -0.3600020 0.9095044
vn -0.3359374 -0.5424089 0.7700252
v -0.0991445 -0.1305262 0.0003453
vn -0.1920066 -0.8071432 0.5582593
v -0.0923880 -0.3826834 0.0003453
vn -0.0371309 -0.6431259 0.7648597
v -0.0343625 -0.5951752 0.7264218
vn -0.1195867 -0.9076990 0.4022206
v -0.0793353 -0.6087614 0.0000000
vn -0.0779754 -0.9570618 0.2791999
v -0.0608761 -0.7933533 0.0000000
vn -0.0547715 -0.9483339 0.3125110
v -0.0463329 -0.8025086 0.3759078
vn 0.0070197 -0.1215853 0.9925562
v 0.0069336 -0.1200928 0.9903386
vn 0.0214906 -0.3722275 0.9278927
v 0.0207847 -0.3600020 0.9095044
vn -0.0369491 -0.9712569 0.2351486
v -0.0382683 -0.9238795 0.0003453
vn -0.0121939 -0.9653183 0.2607911
v -0.0130526 -0.9914448 0.0003453
vn 0.0371309 -0.6431262 0.7648595
v 0.0343625 -0.5951752 0.7264218
vn 0.0121939 -0.9653183 0.2607910
v 0.0130526 -0.9914448 0.0003453
vn 0.0369491 -0.9712569 0.2351487
v 0.0382683 -0.9238795 0.0003453
vn 0.0547715 -0.9483338 0.3125110
v 0.0463329 -0.8025086 0.3759078
vn 0.0779754 -0.9570618 0.2791998
v 0.0608761 -0.7933533 0.0000000
vn 0.1195867 -0.9076992 0.4022204
v 0.0793353 -0.6087614 0.0000000
vn 0.1920067 -0.8071433 0.5582591
v 0.0923880 -0.3826834 0.0003453
vn 0.3359374 -0.5424086 0.7700253
v 0.0991445 -0.1305262 0.0003453
# 217 vertices, 0 vertices normals

f 62//62 63//63 64//64
f 65//65 66//66 67//67
f 68//68 69//69 70//70
f 71//71 72//72 73//73
f 74//74 75//75 76//76
f 77//77 78//78 79//79
f 80//80 81//81 82//82
f 83//83 84//84 85//85
f 86//86 87//87 88//88
f 89//89 90//90 91//91
f 92//92 93//93 94//94
f 95//95 96//96 97//97
f 98//98 99//99 100//100
f 101//101 102//102 103//103
f 104//104 105//105 106//106
f 107//107 108//108 109//109
f 110//110 111//111 112//112
f 113//113 114//114 115//115
f 116//116 117//117 118//118
f 119//119 120//120 121//121
f 122//122 123//123 124//124
f 125//125 126//126 127//127
f 128//128 129//129 130//130
f 131//131 132//132 133//133
f 134//134 64//64 135//135
f 136//136 137//137 62//62
f 63//63 138//138 139//139
f 140//140 67//67 141//141
f 142//142 143//143 65//65
f 66//66 144//144 145//145
f 146//146 70//70 147//147
f 148//148 149//149 68//68
f 69//69 150//150 151//151
f 152//152 73//73 153//153
f 154//154 155//155 71//71
f 72//72 156//156 157//157
f 158//158 76//76 159//159
f 160//160 161//161 74//74
f 75//75 162//162 163//163
f 164//164 79//79 165//165
f 166//166 167//167 77//77
f 78//78 168//168 169//169
f 170//170 82//82 171//171
f 172//172 135//135 80//80
f 81//81 139//139 173//173
f 174//174 85//85 134//134
f 175//175 176//176 83//83
f 84//84 177//177 136//136
f 138//138 88//88 178//178
f 137//137 179//179 86//86
f 87//87 180//180 181//181
f 171//171 91//91 182//182
f 173//173 141//141 89//89
f 90//90 145//145 183//183
f 178//178 94//94 140//140
f 181//181 184//184 92//92
f 93//93 185//185 142//142
f 144//144 97//97 186//186
f 143//143 187//187 95//95
f 96//96 188//188 189//189
f 182//182 100//100 190//190
f 183//183 147//147 98//98
f 99//99 151//151 191//191
f 186//186 103//103 146//146
f 189//189 192//192 101//101
f 102//102 193//193 148//148
f 150//150 106//106 194//194
f 149//149 195//195 104//104
f 105//105 196//196 197//197
f 190//190 109//109 198//198
f 191//191 153//153 107//107
f 108//108 157//157 199//199
f 194//194 112//112 152//152
f 197//197 200//200 110//110
f 111//111 201//201 154//154
f 156//156 115//115 202//202
f 155//155 203//203 113//113
f 114//114 204//204 205//205
f 198//198 118//118 206//206
f 199//199 159//159 116//116
f 117//117 163//163 207//207
f 202//202 121//121 158//158
f 205//205 208//208 119//119
f 120//120 209//209 160//160
f 162//162 124//124 210//210
f 161//161 211//211 122//122
f 123//123 212//212 213//213
f 206//206 127//127 170//170
f 207//207 165//165 125//125
f 126//126 169//169 172//172
f 210//210 130//130 164//164
f 213//213 214//214 128//128
f 129//129 215//215 166//166
f 168//168 133//133 174//174
f 167//167 216//216 131//131
f 132//132 217//217 175//175
f 20//20 62//62 64//64
f 62//62 21//21 63//63
f 64//64 63//63 22//22
f 23//23 65//65 67//67
f 65//65 24//24 66//66
f 67//67 66//66 25//25
f 26//26 68//68 70//70
f 68//68 27//27 69//69
f 70//70 69//69 28//28
f 29//29 71//71 73//73
f 71//71 30//30 72//72
f 73//73 72//72 31//31
f 32//32 74//74 76//76
f 74//74 33//33 75//75
f 76//76 75//75 34//34
f 35//35 77//77 79//79
f 77//77 36//36 78//78
f 79//79 78//78 37//37
f 38//38 80//80 82//82
f 80//80 22//22 81//81
f 82//82 81//81 39//39
f 40//40 83//83 85//85
f 83//83 41//41 84//84
f 85//85 84//84 20//20
f 21//21 86//86 88//88
f 86//86 42//42 87//87
f 88//88 87//87 43//43
f 39//39 89//89 91//91
f 89//89 25//25 90//90
f 91//91 90//90 44//44
f 43//43 92//92 94//94
f 92//92 45//45 93//93
f 94//94 93//93 23//23
f 24//24 95//95 97//97
f 95//95 46//46 96//96
f 97//97 96//96 47//47
f 44//44 98//98 100//100
f 98//98 28//28 99//99
f 100//100 99//99 48//48
f 47//47 101//101 103//103
f 101//101 49//49 102//102
f 103//103 102//102 26//26
f 27//27 104//104 106//106
f 104//104 50//50 105//105
f 106//106 105//105 51//51
f 48//48 107//107 109//109
f 107//107 31//31 108//108
f 109//109 108//108 52//52
f 51//51 110//110 112//112
f 110//110 53//53 111//111
f 112//112 111//111 29//29
f 30//30 113//113 115//115
f 113//113 54//54 114//114
f 115//115 114//114 55//55
f 52//52 116//116 118//118
f 116//116 34//34 117//117
f 118//118 117//117 56//56
f 55//55 119//119 121//121
f 119//119 57//57 120//120
f 121//121 120//120 32//32
f 33//33 122//122 124//124
f 122//122 58//58 123//123
f 124//124 123//123 59//59
f 56//56 125//125 127//127
f 125//125 37//37 126//126
f 127//127 126//126 38//38
f 59//59 128//128 130//130
f 128//128 60//60 129//129
f 130//130 129//129 35//35
f 36//36 131//131 133//133
f 131//131 61//61 132//132
f 133//133 132//132 40//40
f 8//8 134//134 135//135
f 134//134 20//20 64//64
f 135//135 64//64 22//22
f 20//20 136//136 62//62
f 136//136 9//9 137//137
f 62//62 137//137 21//21
f 22//22 63//63 139//139
f 63//63 21//21 138//138
f 139//139 138//138 10//10
f 10//10 140//140 141//141
f 140//140 23//23 67//67
f 141//141 67//67 25//25
f 23//23 142//142 65//65
f 142//142 11//11 143//143
f 65//65 143//143 24//24
f 25//25 66//66 145//145
f 66//66 24//24 144//144
f 145//145 144//144 12//12
f 12//12 146//146 147//147
f 146//146 26//26 70//70
f 147//147 70//70 28//28
f 26//26 148//148 68//68
f 148//148 13//13 149//149
f 68//68 149//149 27//27
f 28//28 69//69 151//151
f 69//69 27//27 150//150
f 151//151 150//150 14//14
f 14//14 152//152 153//153
f 152//152 29//29 73//73
f 153//153 73//73 31//31
f 29//29 154//154 71//71
f 154//154 15//15 155//155
f 71//71 155//155 30//30
f 31//31 72//72 157//157
f 72//72 30//30 156//156
f 157//157 156//156 16//16
f 16//16 158//158 159//159
f 158//158 32//32 76//76
f 159//159 76//76 34//34
f 32//32 160//160 74//74
f 160//160 17//17 161//161
f 74//74 161//161 33//33
f 34//34 75//75 163//163
f 75//75 33//33 162//162
f 163//163 162//162 18//18
f 18//18 164//164 165//165
f 164//164 35//35 79//79
f 165//165 79//79 37//37
f 35//35 166//166 77//77
f 166//166 19//19 167//167
f 77//77 167//167 36//36
f 37//37 78//78 169//169
f 78//78 36//36 168//168
f 169//169 168//168 8//8
f 1//1 170//170 171//171
f 170//170 38//38 82//82
f 171//171 82//82 39//39
f 38//38 172//172 80//80
f 172//172 8//8 135//135
f 80//80 135//135 22//22
f 39//39 81//81 173//173
f 81//81 22//22 139//139
f 173//173 139//139 10//10
f 8//8 174//174 134//134
f 174//174 40//40 85//85
f 134//134 85//85 20//20
f 40//40 175//175 83//83
f 175//175 2//2 176//176
f 83//83 176//176 41//41
f 20//20 84//84 136//136
f 84//84 41//41 177//177
f 136//136 177//177 9//9
f 10//10 138//138 178//178
f 138//138 21//21 88//88
f 178//178 88//88 43//43
f 21//21 137//137 86//86
f 137//137 9//9 179//179
f 86//86 179//179 42//42
f 43//43 87//87 181//181
f 87//87 42//42 180//180
f 181//181 180//180 3//3
f 1//1 171//171 182//182
f 171//171 39//39 91//91
f 182//182 91//91 44//44
f 39//39 173//173 89//89
f 173//173 10//10 141//141
f 89//89 141//141 25//25
f 44//44 90//90 183//183
f 90//90 25//25 145//145
f 183//183 145//145 12//12
f 10//10 178//178 140//140
f 178//178 43//43 94//94
f 140//140 94//94 23//23
f 43//43 181//181 92//92
f 181//181 3//3 184//184
f 92//92 184//184 45//45
f 23//23 93//93 142//142
f 93//93 45//45 185//185
f 142//142 185//185 11//11
f 12//12 144//144 186//186
f 144//144 24//24 97//97
f 186//186 97//97 47//47
f 24//24 143//143 95//95
f 143//143 11//11 187//187
f 95//95 187//187 46//46
f 47//47 96//96 189//189
f 96//96 46//46 188//188
f 189//189 188//188 4//4
f 1//1 182//182 190//190
f 182//182 44//44 100//100
f 190//190 100//100 48//48
f 44//44 183//183 98//98
f 183//183 12//12 147//147
f 98//98 147//147 28//28
f 48//48 99//99 191//191
f 99//99 28//28 151//151
f 191//191 151//151 14//14
f 12//12 186//186 146//146
f 186//186 47//47 103//103
f 146//146 103//103 26//26
f 47//47 189//189 101//101
f 189//189 4//4 192//192
f 101//101 192//192 49//49
f 26//26 102//102 148//148
f 102//102 49//49 193//193
f 148//148 193//193 13//13
f 14//14 150//150 194//194
f 150//150 27//27 106//106
f 194//194 106//106 51//51
f 27//27 149//149 104//104
f 149//149 13//13 195//195
f 104//104 195//195 50//50
f 51//51 105//105 197//197
f 105//105 50//50 196//196
f 197//197 196//196 5//5
f 1//1 190//190 198//198
f 190//190 48//48 109//109
f 198//198 109//109 52//52
f 48//48 191//191 107//107
f 191//191 14//14 153//153
f 107//107 153//153 31//31
f 52//52 108//108 199//199
f 108//108 31//31 157//157
f 199//199 157//157 16//16
f 14//14 194//194 152//152
f 194//194 51//51 112//112
f 152//152 112//112 29//29
f 51//51 197//197 110//110
f 197//197 5//5 200//200
f 110//110 200//200 53//53
f 29//29 111//111 154//154
f 111//111 53//53 201//201
f 154//154 201//201 15//15
f 16//16 156//156 202//202
f 156//156 30//30 115//115
f 202//202 115//115 55//55
f 30//30 155//155 113//113
f 155//155 15//15 203//203
f 113//113 203//203 54//54
f 55//55 114//114 205//205
f 114//114 54//54 204//204
f 205//205 204//204 6//6
f 1//1 198//198 206//206
f 198//198 52//52 118//118
f 206//206 118//118 56//56
f 52//52 199//199 116//116
f 199//199 16//16 159//159
f 116//116 159//159 34//34
f 56//56 117//117 207//207
f 117//117 34//34 163//163
f 207//207 163//163 18//18
f 16//16 202//202 158//158
f 202//202 55//55 121//121
f 158//158 121//121 32//32
f 55//55 205//205 119//119
f 205//205 6//6 208//208
f 119//119 208//208 57//57
f 32//32 120//120 160//160
f 120//120 57//57 209//209
f 160//160 209//209 17//17
f 18//18 162//162 210//210
f 162//162 33//33 124//124
f 210//210 124//124 59//59
f 33//33 161//161 122//122
f 161//161 17//17 211//211
f 122//122 211//211 58//58
f 59//59 123//123 213//213
f 123//123 58//58 212//212
f 213//213 212//212 7//7
f 1//1 206//206 170//170
f 206//206 56//56 127//127
f 170//170 127//127 38//38
f 56//56 207//207 125//125
f 207//207 18//18 165//165
f 125//125 165//165 37//37
f 38//38 126//126 172//172
f 126//126 37//37 169//169
f 172//172 169//169 8//8
f 18//18 210//210 164//164
f 210//210 59//59 130//130
f 164//164 130//130 35//35
f 59//59 213//213 128//128
f 213//213 7//7 214//214
f 128//128 214//214 60//60
f 35//35 129//129 166//166
f 129//129 60//60 215//215
f 166//166 215//215 19//19
f 8//8 168//168 174//174
f 168//168 36//36 133//133
f 174//174 133//133 40//40
f 36//36 167//167 131//131
f 167//167 19//19 216//216
f 131//131 216//216 61//61
f 40//40 132//132 175//175
f 132//132 61//61 217//217
f 175//175 217//217 2//2
# 384 faces, 0 coords texture

# End of File
