####
#
# OBJ File Generated by Meshlab
#
####
# Object spherical_cap.obj
#
# Vertices: 217
# Faces: 384
#
####
vn 0.0000000 0.0000000 1.0000000
v -0.0000000 0.0000000 0.5000000
vn 0.8356652 0.0000000 0.5492393
v 0.8660254 0.0000000 0.0000000
vn 0.6021587 0.1042970 0.7915346
v 0.4330127 0.0750000 0.0000000
vn -0.6021588 0.1042970 0.7915345
v -0.4330127 0.0750000 0.0000000
vn -0.8356651 0.0000000 0.5492393
v -0.8660254 0.0000000 0.0000000
vn -0.6021587 -0.1042970 0.7915346
v -0.4330127 -0.0750000 0.0000000
vn 0.6021588 -0.1042970 0.7915345
v 0.4330127 -0.0750000 0.0000000
vn 0.4827579 -0.0000000 0.8757539
v 0.4788824 -0.0000000 0.3778791
vn 0.7675621 0.0443152 0.6394409
v 0.7500001 0.0433013 0.0000000
vn 0.2654348 0.0459747 0.9630321
v 0.2394412 0.0414724 0.3778791
vn 0.0000000 0.1372936 0.9905304
v 0.0000000 0.0866025 0.0000000
vn -0.2654350 0.0459747 0.9630320
v -0.2394412 0.0414724 0.3778791
vn -0.7675622 0.0443152 0.6394408
v -0.7500001 0.0433013 0.0000000
vn -0.4827578 0.0000000 0.8757539
v -0.4788825 0.0000000 0.3778791
vn -0.7675621 -0.0443152 0.6394409
v -0.7500001 -0.0433013 0.0000000
vn -0.2654348 -0.0459747 0.9630321
v -0.2394412 -0.0414724 0.3778791
vn 0.0000000 -0.1372936 0.9905304
v 0.0000000 -0.0866025 0.0000000
vn 0.2654350 -0.0459747 0.9630320
v 0.2394412 -0.0414724 0.3778791
vn 0.7675622 -0.0443152 0.6394408
v 0.7500001 -0.0433013 0.0000000
vn 0.6248726 0.0223368 0.7804072
v 0.6028661 0.0213480 0.2687515
vn 0.5433614 0.0461293 0.8382307
v 0.4863122 0.0415357 0.2687515
vn 0.3727208 0.0215190 0.9276940
v 0.3611920 0.0208534 0.4088751
vn 0.1502210 0.0824166 0.9852113
v 0.1165539 0.0628837 0.2687515
vn -0.1502211 0.0824166 0.9852113
v -0.1165539 0.0628837 0.2687515
vn 0.0000001 0.0463427 0.9989256
v -0.0000000 0.0417069 0.4088751
vn -0.5433615 0.0461292 0.8382306
v -0.4863122 0.0415357 0.2687515
vn -0.6248726 0.0223369 0.7804071
v -0.6028661 0.0213480 0.2687515
vn -0.3727209 0.0215190 0.9276940
v -0.3611920 0.0208534 0.4088751
vn -0.6248726 -0.0223368 0.7804072
v -0.6028661 -0.0213480 0.2687515
vn -0.5433614 -0.0461293 0.8382307
v -0.4863122 -0.0415357 0.2687515
vn -0.3727208 -0.0215190 0.9276940
v -0.3611920 -0.0208534 0.4088751
vn -0.1502210 -0.0824166 0.9852113
v -0.1165539 -0.0628837 0.2687515
vn 0.1502211 -0.0824166 0.9852113
v 0.1165539 -0.0628837 0.2687515
vn -0.0000001 -0.0463427 0.9989256
v 0.0000000 -0.0417069 0.4088751
vn 0.5433615 -0.0461292 0.8382306
v 0.4863122 -0.0415357 0.2687515
vn 0.6248726 -0.0223368 0.7804072
v 0.6028661 -0.0213480 0.2687515
vn 0.3727208 -0.0215191 0.9276940
v 0.3611920 -0.0208534 0.4088751
vn 0.2420057 0.0000000 0.9702749
v 0.2401687 -0.0000000 0.4707312
vn 0.1237229 0.0214294 0.9920854
v 0.1200844 0.0207992 0.4707312
vn 0.7100531 -0.0000000 0.7041482
v 0.7054873 -0.0000000 0.2087226
vn 0.8074493 0.0212770 0.5895532
v 0.8365164 0.0224144 0.0000000
vn 0.7043837 0.0710251 0.7062571
v 0.6123725 0.0612373 -0.0000002
vn 0.4488437 0.0777420 0.8902222
v 0.3527436 0.0610970 0.2087227
vn -0.1237228 0.0214294 0.9920854
v -0.1200844 0.0207992 0.4707312
vn 0.3460353 0.1270324 0.9295819
v 0.2241439 0.0836516 0.0000000
vn -0.3460350 0.1270324 0.9295819
v -0.2241439 0.0836516 0.0000000
vn -0.4488438 0.0777420 0.8902222
v -0.3527436 0.0610970 0.2087226
vn -0.2420057 -0.0000000 0.9702749
v -0.2401687 0.0000000 0.4707312
vn -0.7043837 0.0710251 0.7062572
v -0.6123725 0.0612373 -0.0000002
vn -0.8074493 0.0212770 0.5895532
v -0.8365164 0.0224144 0.0000000
vn -0.7100533 -0.0000000 0.7041479
v -0.7054874 0.0000000 0.2087226
vn -0.1237229 -0.0214294 0.9920854
v -0.1200844 -0.0207992 0.4707312
vn -0.8074493 -0.0212770 0.5895532
v -0.8365164 -0.0224144 0.0000000
vn -0.7043837 -0.0710251 0.7062571
v -0.6123725 -0.0612373 -0.0000002
vn -0.4488437 -0.0777420 0.8902222
v -0.3527436 -0.0610970 0.2087227
vn 0.1237228 -0.0214294 0.9920854
v 0.1200844 -0.0207992 0.4707312
vn -0.3460353 -0.1270324 0.9295819
v -0.2241439 -0.0836516 0.0000000
vn 0.3460350 -0.1270324 0.9295819
v 0.2241439 -0.0836516 0.0000000
vn 0.4488438 -0.0777420 0.8902222
v 0.3527436 -0.0610970 0.2087226
vn 0.7043837 -0.0710251 0.7062572
v 0.6123725 -0.0612373 -0.0000002
vn 0.8074492 -0.0212770 0.5895534
v 0.8365164 -0.0224144 0.0000000
vn 0.5853640 0.0337960 0.8100660
v 0.5471422 0.0315893 0.2751434
vn 0.4506835 0.0332235 0.8920653
v 0.4231665 0.0312513 0.3504505
vn 0.4984462 0.0217798 0.8666470
v 0.4822273 0.0210217 0.3504504
vn -0.0000001 0.0831512 0.9965370
v -0.0000000 0.0631785 0.2751433
vn -0.0696246 0.0621024 0.9956384
v -0.0590607 0.0522729 0.3504505
vn 0.0696246 0.0621024 0.9956384
v 0.0590607 0.0522729 0.3504505
vn -0.5853641 0.0337960 0.8100659
v -0.5471423 0.0315893 0.2751433
vn -0.4984461 0.0217798 0.8666471
v -0.4822273 0.0210217 0.3504504
vn -0.4506836 0.0332235 0.8920653
v -0.4231665 0.0312513 0.3504504
vn -0.5853640 -0.0337960 0.8100660
v -0.5471422 -0.0315893 0.2751434
vn -0.4506835 -0.0332235 0.8920653
v -0.4231665 -0.0312513 0.3504505
vn -0.4984462 -0.0217798 0.8666470
v -0.4822273 -0.0210217 0.3504504
vn 0.0000001 -0.0831512 0.9965370
v 0.0000000 -0.0631785 0.2751433
vn 0.0696246 -0.0621024 0.9956384
v 0.0590607 -0.0522729 0.3504505
vn -0.0696246 -0.0621024 0.9956384
v -0.0590607 -0.0522729 0.3504505
vn 0.5853641 -0.0337960 0.8100659
v 0.5471423 -0.0315893 0.2751433
vn 0.4984462 -0.0217798 0.8666470
v 0.4822273 -0.0210217 0.3504504
vn 0.4506836 -0.0332235 0.8920653
v 0.4231665 -0.0312513 0.3504504
vn 0.3044167 0.0105690 0.9524804
v 0.3003424 0.0104224 0.4481202
vn 0.2478537 0.0214346 0.9685603
v 0.2404320 0.0207992 0.4481202
vn 0.1825517 0.0105396 0.9831398
v 0.1801790 0.0104026 0.4781176
vn 0.7758617 0.0121045 0.6307869
v 0.7631981 0.0110600 0.1366288
vn 0.7522582 0.0234187 0.6584522
v 0.7216608 0.0218333 0.1569145
vn 0.6645660 0.0112489 0.7471449
v 0.6545208 0.0108085 0.2482782
vn 0.6590857 0.0608357 0.7496033
v 0.5499120 0.0515810 0.1569145
vn 0.6138227 0.0761603 0.7857616
v 0.4773814 0.0605649 0.1366288
vn 0.4976497 0.0601401 0.8652906
v 0.4208643 0.0512789 0.2482783
vn 0.0635413 0.0331413 0.9974288
v 0.0599104 0.0312216 0.4481202
vn -0.0635413 0.0331413 0.9974288
v -0.0599104 0.0312216 0.4481202
vn -0.0000000 0.0214358 0.9997702
v -0.0000000 0.0208053 0.4781176
vn 0.4071822 0.1053456 0.9072514
v 0.2858167 0.0716249 0.1366287
vn 0.2529417 0.1121663 0.9609575
v 0.1717487 0.0734143 0.1569145
vn 0.2989112 0.0804058 0.9508875
v 0.2336564 0.0620874 0.2482783
vn -0.2529415 0.1121663 0.9609575
v -0.1717487 0.0734143 0.1569145
vn -0.4071820 0.1053455 0.9072514
v -0.2858167 0.0716249 0.1366288
vn -0.2989110 0.0804058 0.9508876
v -0.2336564 0.0620874 0.2482782
vn -0.2478538 0.0214346 0.9685603
v -0.2404320 0.0207992 0.4481202
vn -0.3044168 0.0105690 0.9524803
v -0.3003424 0.0104224 0.4481202
vn -0.1825517 0.0105396 0.9831398
v -0.1801790 0.0104026 0.4781176
vn -0.6138227 0.0761603 0.7857616
v -0.4773815 0.0605649 0.1366288
vn -0.6590857 0.0608357 0.7496033
v -0.5499121 0.0515810 0.1569145
vn -0.4976497 0.0601401 0.8652906
v -0.4208644 0.0512789 0.2482782
vn -0.7522582 0.0234187 0.6584521
v -0.7216609 0.0218333 0.1569144
vn -0.7758619 0.0121045 0.6307867
v -0.7631982 0.0110600 0.1366288
vn -0.6645660 0.0112489 0.7471448
v -0.6545208 0.0108085 0.2482782
vn -0.3044167 -0.0105690 0.9524804
v -0.3003424 -0.0104224 0.4481202
vn -0.2478537 -0.0214346 0.9685603
v -0.2404320 -0.0207992 0.4481202
vn -0.1825517 -0.0105396 0.9831398
v -0.1801790 -0.0104026 0.4781176
vn -0.7758617 -0.0121045 0.6307869
v -0.7631982 -0.0110600 0.1366288
vn -0.7522582 -0.0234187 0.6584522
v -0.7216608 -0.0218333 0.1569145
vn -0.6645660 -0.0112489 0.7471449
v -0.6545208 -0.0108085 0.2482782
vn -0.6590857 -0.0608357 0.7496033
v -0.5499120 -0.0515810 0.1569145
vn -0.6138227 -0.0761603 0.7857616
v -0.4773814 -0.0605649 0.1366288
vn -0.4976497 -0.0601401 0.8652906
v -0.4208643 -0.0512789 0.2482783
vn -0.0635413 -0.0331413 0.9974288
v -0.0599104 -0.0312216 0.4481202
vn 0.0635413 -0.0331413 0.9974288
v 0.0599104 -0.0312216 0.4481202
vn 0.0000000 -0.0214358 0.9997702
v 0.0000000 -0.0208053 0.4781176
vn -0.4071822 -0.1053456 0.9072514
v -0.2858167 -0.0716249 0.1366287
vn -0.2529417 -0.1121663 0.9609575
v -0.1717487 -0.0734143 0.1569145
vn -0.2989112 -0.0804058 0.9508875
v -0.2336564 -0.0620874 0.2482783
vn 0.2529415 -0.1121663 0.9609575
v 0.1717487 -0.0734143 0.1569145
vn 0.4071820 -0.1053455 0.9072514
v 0.2858167 -0.0716249 0.1366288
vn 0.2989110 -0.0804058 0.9508876
v 0.2336564 -0.0620874 0.2482782
vn 0.2478538 -0.0214346 0.9685603
v 0.2404320 -0.0207992 0.4481202
vn 0.3044167 -0.0105690 0.9524803
v 0.3003424 -0.0104224 0.4481202
vn 0.1825517 -0.0105396 0.9831398
v 0.1801790 -0.0104026 0.4781176
vn 0.6138227 -0.0761603 0.7857616
v 0.4773815 -0.0605649 0.1366288
vn 0.6590857 -0.0608357 0.7496033
v 0.5499121 -0.0515810 0.1569145
vn 0.4976497 -0.0601401 0.8652906
v 0.4208644 -0.0512789 0.2482782
vn 0.7522582 -0.0234187 0.6584522
v 0.7216609 -0.0218333 0.1569144
vn 0.7758617 -0.0121045 0.6307869
v 0.7631981 -0.0110600 0.1366288
vn 0.6645660 -0.0112489 0.7471448
v 0.6545208 -0.0108085 0.2482782
vn 0.5468679 0.0108595 0.8371485
v 0.5389456 0.0106100 0.3356318
vn 0.4261561 0.0106595 0.9045869
v 0.4202317 0.0104840 0.4013401
vn 0.7264716 0.0350478 0.6863022
v 0.6728713 0.0322281 0.1658671
vn 0.6960378 0.0473836 0.7164399
v 0.6155394 0.0421583 0.1658672
vn 0.4015232 0.0458149 0.9147022
v 0.3613585 0.0413690 0.3356318
vn 0.3196925 0.0330550 0.9469447
v 0.3009100 0.0311511 0.4013402
vn 0.2091309 0.0615425 0.9759492
v 0.1775870 0.0519791 0.3356318
vn 0.1321859 0.0462308 0.9901463
v 0.1193216 0.0416351 0.4013401
vn 0.0860946 0.1159761 0.9895137
v 0.0573318 0.0743864 0.1658672
vn -0.0860949 0.1159761 0.9895137
v -0.0573318 0.0743864 0.1658672
vn -0.2091310 0.0615425 0.9759492
v -0.1775870 0.0519791 0.3356318
vn -0.1321859 0.0462308 0.9901463
v -0.1193216 0.0416351 0.4013402
vn -0.4015231 0.0458148 0.9147022
v -0.3613585 0.0413690 0.3356318
vn -0.3196926 0.0330550 0.9469446
v -0.3009100 0.0311511 0.4013401
vn -0.6960379 0.0473836 0.7164399
v -0.6155396 0.0421583 0.1658671
vn -0.7264715 0.0350478 0.6863022
v -0.6728714 0.0322281 0.1658671
vn -0.5468677 0.0108595 0.8371487
v -0.5389456 0.0106100 0.3356318
vn -0.4261561 0.0106595 0.9045869
v -0.4202317 0.0104840 0.4013401
vn -0.5468679 -0.0108595 0.8371485
v -0.5389456 -0.0106100 0.3356318
vn -0.4261561 -0.0106595 0.9045869
v -0.4202317 -0.0104840 0.4013401
vn -0.7264716 -0.0350478 0.6863022
v -0.6728713 -0.0322281 0.1658671
vn -0.6960378 -0.0473836 0.7164399
v -0.6155394 -0.0421583 0.1658672
vn -0.4015232 -0.0458149 0.9147022
v -0.3613585 -0.0413690 0.3356318
vn -0.3196925 -0.0330550 0.9469447
v -0.3009100 -0.0311511 0.4013402
vn -0.2091309 -0.0615425 0.9759492
v -0.1775870 -0.0519791 0.3356318
vn -0.1321859 -0.0462308 0.9901463
v -0.1193216 -0.0416351 0.4013401
vn -0.0860946 -0.1159761 0.9895137
v -0.0573318 -0.0743864 0.1658672
vn 0.0860949 -0.1159761 0.9895137
v 0.0573318 -0.0743864 0.1658672
vn 0.2091310 -0.0615425 0.9759492
v 0.1775870 -0.0519791 0.3356318
vn 0.1321859 -0.0462308 0.9901463
v 0.1193216 -0.0416351 0.4013402
vn 0.4015231 -0.0458148 0.9147022
v 0.3613585 -0.0413690 0.3356318
vn 0.3196926 -0.0330550 0.9469446
v 0.3009100 -0.0311511 0.4013401
vn 0.6960379 -0.0473836 0.7164399
v 0.6155396 -0.0421583 0.1658671
vn 0.7264715 -0.0350478 0.6863022
v 0.6728714 -0.0322281 0.1658671
vn 0.5468678 -0.0108595 0.8371485
v 0.5389456 -0.0106100 0.3356318
vn 0.4261561 -0.0106595 0.9045869
v 0.4202317 -0.0104840 0.4013401
vn 0.1209857 0.0000000 0.9926543
v 0.1200928 -0.0000000 0.4927627
vn 0.0608243 0.0105351 0.9980929
v 0.0600464 0.0104003 0.4927627
vn 0.3628519 0.0000000 0.9318468
v 0.3600021 -0.0000000 0.4329516
vn 0.1910020 0.0330825 0.9810320
v 0.1800010 0.0311771 0.4329516
vn 0.5998701 0.0000000 0.8000974
v 0.5951753 -0.0000000 0.3035959
vn 0.8033626 -0.0000000 0.5954902
v 0.8025086 -0.0000000 0.0966406
vn 0.8232352 0.0105430 0.5676025
v 0.8586165 0.0113039 0.0000000
vn 0.7895736 0.0324726 0.6127961
v 0.8001032 0.0331414 0.0000000
vn 0.3503724 0.0606863 0.9346424
v 0.2975876 0.0515437 0.3035959
vn 0.7396905 0.0570549 0.6705242
v 0.6870642 0.0527203 0.0000000
vn 0.6606760 0.0867324 0.7456439
v 0.5272029 0.0687064 0.0000000
vn 0.5566055 0.0964069 0.8251643
v 0.4012543 0.0694993 0.0966406
vn -0.0608243 0.0105351 0.9980929
v -0.0600464 0.0104003 0.4927627
vn -0.1910021 0.0330825 0.9810320
v -0.1800010 0.0311771 0.4329516
vn 0.4881123 0.1166756 0.8649470
v 0.3314136 0.0800103 0.0000000
vn 0.1805649 0.1345347 0.9743186
v 0.1130390 0.0858616 0.0000000
vn -0.3503725 0.0606863 0.9346424
v -0.2975876 0.0515437 0.3035959
vn -0.1805651 0.1345346 0.9743186
v -0.1130390 0.0858616 0.0000000
vn -0.4881124 0.1166756 0.8649468
v -0.3314136 0.0800103 0.0000000
vn -0.5566056 0.0964069 0.8251642
v -0.4012543 0.0694993 0.0966406
vn -0.1209859 -0.0000000 0.9926543
v -0.1200928 0.0000000 0.4927627
vn -0.3628519 0.0000000 0.9318468
v -0.3600021 0.0000000 0.4329516
vn -0.6606761 0.0867323 0.7456438
v -0.5272029 0.0687064 0.0000000
vn -0.7396905 0.0570549 0.6705242
v -0.6870642 0.0527203 0.0000000
vn -0.5998701 -0.0000000 0.8000974
v -0.5951754 0.0000000 0.3035959
vn -0.7895737 0.0324726 0.6127960
v -0.8001032 0.0331414 0.0000000
vn -0.8232353 0.0105430 0.5676024
v -0.8586165 0.0113039 0.0000000
vn -0.8033627 0.0000000 0.5954900
v -0.8025087 0.0000000 0.0966405
vn -0.0608243 -0.0105351 0.9980929
v -0.0600464 -0.0104003 0.4927627
vn -0.1910020 -0.0330825 0.9810320
v -0.1800010 -0.0311771 0.4329516
vn -0.8232353 -0.0105430 0.5676025
v -0.8586165 -0.0113039 0.0000000
vn -0.7895736 -0.0324726 0.6127961
v -0.8001032 -0.0331414 0.0000000
vn -0.3503724 -0.0606863 0.9346424
v -0.2975876 -0.0515437 0.3035959
vn -0.7396905 -0.0570549 0.6705242
v -0.6870642 -0.0527203 0.0000000
vn -0.6606760 -0.0867324 0.7456439
v -0.5272029 -0.0687064 0.0000000
vn -0.5566055 -0.0964069 0.8251643
v -0.4012543 -0.0694993 0.0966406
vn 0.0608243 -0.0105351 0.9980929
v 0.0600464 -0.0104003 0.4927627
vn 0.1910021 -0.0330825 0.9810320
v 0.1800010 -0.0311771 0.4329516
vn -0.4881123 -0.1166756 0.8649470
v -0.3314136 -0.0800103 0.0000000
vn -0.1805649 -0.1345347 0.9743186
v -0.1130390 -0.0858616 0.0000000
vn 0.3503725 -0.0606863 0.9346424
v 0.2975876 -0.0515437 0.3035959
vn 0.1805651 -0.1345346 0.9743186
v 0.1130390 -0.0858616 0.0000000
vn 0.4881124 -0.1166756 0.8649468
v 0.3314136 -0.0800103 0.0000000
vn 0.5566056 -0.0964069 0.8251642
v 0.4012543 -0.0694993 0.0966406
vn 0.6606761 -0.0867323 0.7456438
v 0.5272029 -0.0687064 0.0000000
vn 0.7396905 -0.0570549 0.6705242
v 0.6870642 -0.0527203 0.0000000
vn 0.7895737 -0.0324726 0.6127960
v 0.8001032 -0.0331414 0.0000000
vn 0.8232352 -0.0105430 0.5676025
v 0.8586165 -0.0113039 0.0000000
# 217 vertices, 0 vertices normals

f 62//62 63//63 64//64
f 65//65 66//66 67//67
f 68//68 69//69 70//70
f 71//71 72//72 73//73
f 74//74 75//75 76//76
f 77//77 78//78 79//79
f 80//80 81//81 82//82
f 83//83 84//84 85//85
f 86//86 87//87 88//88
f 89//89 90//90 91//91
f 92//92 93//93 94//94
f 95//95 96//96 97//97
f 98//98 99//99 100//100
f 101//101 102//102 103//103
f 104//104 105//105 106//106
f 107//107 108//108 109//109
f 110//110 111//111 112//112
f 113//113 114//114 115//115
f 116//116 117//117 118//118
f 119//119 120//120 121//121
f 122//122 123//123 124//124
f 125//125 126//126 127//127
f 128//128 129//129 130//130
f 131//131 132//132 133//133
f 134//134 64//64 135//135
f 136//136 137//137 62//62
f 63//63 138//138 139//139
f 140//140 67//67 141//141
f 142//142 143//143 65//65
f 66//66 144//144 145//145
f 146//146 70//70 147//147
f 148//148 149//149 68//68
f 69//69 150//150 151//151
f 152//152 73//73 153//153
f 154//154 155//155 71//71
f 72//72 156//156 157//157
f 158//158 76//76 159//159
f 160//160 161//161 74//74
f 75//75 162//162 163//163
f 164//164 79//79 165//165
f 166//166 167//167 77//77
f 78//78 168//168 169//169
f 170//170 82//82 171//171
f 172//172 135//135 80//80
f 81//81 139//139 173//173
f 174//174 85//85 134//134
f 175//175 176//176 83//83
f 84//84 177//177 136//136
f 138//138 88//88 178//178
f 137//137 179//179 86//86
f 87//87 180//180 181//181
f 171//171 91//91 182//182
f 173//173 141//141 89//89
f 90//90 145//145 183//183
f 178//178 94//94 140//140
f 181//181 184//184 92//92
f 93//93 185//185 142//142
f 144//144 97//97 186//186
f 143//143 187//187 95//95
f 96//96 188//188 189//189
f 182//182 100//100 190//190
f 183//183 147//147 98//98
f 99//99 151//151 191//191
f 186//186 103//103 146//146
f 189//189 192//192 101//101
f 102//102 193//193 148//148
f 150//150 106//106 194//194
f 149//149 195//195 104//104
f 105//105 196//196 197//197
f 190//190 109//109 198//198
f 191//191 153//153 107//107
f 108//108 157//157 199//199
f 194//194 112//112 152//152
f 197//197 200//200 110//110
f 111//111 201//201 154//154
f 156//156 115//115 202//202
f 155//155 203//203 113//113
f 114//114 204//204 205//205
f 198//198 118//118 206//206
f 199//199 159//159 116//116
f 117//117 163//163 207//207
f 202//202 121//121 158//158
f 205//205 208//208 119//119
f 120//120 209//209 160//160
f 162//162 124//124 210//210
f 161//161 211//211 122//122
f 123//123 212//212 213//213
f 206//206 127//127 170//170
f 207//207 165//165 125//125
f 126//126 169//169 172//172
f 210//210 130//130 164//164
f 213//213 214//214 128//128
f 129//129 215//215 166//166
f 168//168 133//133 174//174
f 167//167 216//216 131//131
f 132//132 217//217 175//175
f 20//20 62//62 64//64
f 62//62 21//21 63//63
f 64//64 63//63 22//22
f 23//23 65//65 67//67
f 65//65 24//24 66//66
f 67//67 66//66 25//25
f 26//26 68//68 70//70
f 68//68 27//27 69//69
f 70//70 69//69 28//28
f 29//29 71//71 73//73
f 71//71 30//30 72//72
f 73//73 72//72 31//31
f 32//32 74//74 76//76
f 74//74 33//33 75//75
f 76//76 75//75 34//34
f 35//35 77//77 79//79
f 77//77 36//36 78//78
f 79//79 78//78 37//37
f 38//38 80//80 82//82
f 80//80 22//22 81//81
f 82//82 81//81 39//39
f 40//40 83//83 85//85
f 83//83 41//41 84//84
f 85//85 84//84 20//20
f 21//21 86//86 88//88
f 86//86 42//42 87//87
f 88//88 87//87 43//43
f 39//39 89//89 91//91
f 89//89 25//25 90//90
f 91//91 90//90 44//44
f 43//43 92//92 94//94
f 92//92 45//45 93//93
f 94//94 93//93 23//23
f 24//24 95//95 97//97
f 95//95 46//46 96//96
f 97//97 96//96 47//47
f 44//44 98//98 100//100
f 98//98 28//28 99//99
f 100//100 99//99 48//48
f 47//47 101//101 103//103
f 101//101 49//49 102//102
f 103//103 102//102 26//26
f 27//27 104//104 106//106
f 104//104 50//50 105//105
f 106//106 105//105 51//51
f 48//48 107//107 109//109
f 107//107 31//31 108//108
f 109//109 108//108 52//52
f 51//51 110//110 112//112
f 110//110 53//53 111//111
f 112//112 111//111 29//29
f 30//30 113//113 115//115
f 113//113 54//54 114//114
f 115//115 114//114 55//55
f 52//52 116//116 118//118
f 116//116 34//34 117//117
f 118//118 117//117 56//56
f 55//55 119//119 121//121
f 119//119 57//57 120//120
f 121//121 120//120 32//32
f 33//33 122//122 124//124
f 122//122 58//58 123//123
f 124//124 123//123 59//59
f 56//56 125//125 127//127
f 125//125 37//37 126//126
f 127//127 126//126 38//38
f 59//59 128//128 130//130
f 128//128 60//60 129//129
f 130//130 129//129 35//35
f 36//36 131//131 133//133
f 131//131 61//61 132//132
f 133//133 132//132 40//40
f 8//8 134//134 135//135
f 134//134 20//20 64//64
f 135//135 64//64 22//22
f 20//20 136//136 62//62
f 136//136 9//9 137//137
f 62//62 137//137 21//21
f 22//22 63//63 139//139
f 63//63 21//21 138//138
f 139//139 138//138 10//10
f 10//10 140//140 141//141
f 140//140 23//23 67//67
f 141//141 67//67 25//25
f 23//23 142//142 65//65
f 142//142 11//11 143//143
f 65//65 143//143 24//24
f 25//25 66//66 145//145
f 66//66 24//24 144//144
f 145//145 144//144 12//12
f 12//12 146//146 147//147
f 146//146 26//26 70//70
f 147//147 70//70 28//28
f 26//26 148//148 68//68
f 148//148 13//13 149//149
f 68//68 149//149 27//27
f 28//28 69//69 151//151
f 69//69 27//27 150//150
f 151//151 150//150 14//14
f 14//14 152//152 153//153
f 152//152 29//29 73//73
f 153//153 73//73 31//31
f 29//29 154//154 71//71
f 154//154 15//15 155//155
f 71//71 155//155 30//30
f 31//31 72//72 157//157
f 72//72 30//30 156//156
f 157//157 156//156 16//16
f 16//16 158//158 159//159
f 158//158 32//32 76//76
f 159//159 76//76 34//34
f 32//32 160//160 74//74
f 160//160 17//17 161//161
f 74//74 161//161 33//33
f 34//34 75//75 163//163
f 75//75 33//33 162//162
f 163//163 162//162 18//18
f 18//18 164//164 165//165
f 164//164 35//35 79//79
f 165//165 79//79 37//37
f 35//35 166//166 77//77
f 166//166 19//19 167//167
f 77//77 167//167 36//36
f 37//37 78//78 169//169
f 78//78 36//36 168//168
f 169//169 168//168 8//8
f 1//1 170//170 171//171
f 170//170 38//38 82//82
f 171//171 82//82 39//39
f 38//38 172//172 80//80
f 172//172 8//8 135//135
f 80//80 135//135 22//22
f 39//39 81//81 173//173
f 81//81 22//22 139//139
f 173//173 139//139 10//10
f 8//8 174//174 134//134
f 174//174 40//40 85//85
f 134//134 85//85 20//20
f 40//40 175//175 83//83
f 175//175 2//2 176//176
f 83//83 176//176 41//41
f 20//20 84//84 136//136
f 84//84 41//41 177//177
f 136//136 177//177 9//9
f 10//10 138//138 178//178
f 138//138 21//21 88//88
f 178//178 88//88 43//43
f 21//21 137//137 86//86
f 137//137 9//9 179//179
f 86//86 179//179 42//42
f 43//43 87//87 181//181
f 87//87 42//42 180//180
f 181//181 180//180 3//3
f 1//1 171//171 182//182
f 171//171 39//39 91//91
f 182//182 91//91 44//44
f 39//39 173//173 89//89
f 173//173 10//10 141//141
f 89//89 141//141 25//25
f 44//44 90//90 183//183
f 90//90 25//25 145//145
f 183//183 145//145 12//12
f 10//10 178//178 140//140
f 178//178 43//43 94//94
f 140//140 94//94 23//23
f 43//43 181//181 92//92
f 181//181 3//3 184//184
f 92//92 184//184 45//45
f 23//23 93//93 142//142
f 93//93 45//45 185//185
f 142//142 185//185 11//11
f 12//12 144//144 186//186
f 144//144 24//24 97//97
f 186//186 97//97 47//47
f 24//24 143//143 95//95
f 143//143 11//11 187//187
f 95//95 187//187 46//46
f 47//47 96//96 189//189
f 96//96 46//46 188//188
f 189//189 188//188 4//4
f 1//1 182//182 190//190
f 182//182 44//44 100//100
f 190//190 100//100 48//48
f 44//44 183//183 98//98
f 183//183 12//12 147//147
f 98//98 147//147 28//28
f 48//48 99//99 191//191
f 99//99 28//28 151//151
f 191//191 151//151 14//14
f 12//12 186//186 146//146
f 186//186 47//47 103//103
f 146//146 103//103 26//26
f 47//47 189//189 101//101
f 189//189 4//4 192//192
f 101//101 192//192 49//49
f 26//26 102//102 148//148
f 102//102 49//49 193//193
f 148//148 193//193 13//13
f 14//14 150//150 194//194
f 150//150 27//27 106//106
f 194//194 106//106 51//51
f 27//27 149//149 104//104
f 149//149 13//13 195//195
f 104//104 195//195 50//50
f 51//51 105//105 197//197
f 105//105 50//50 196//196
f 197//197 196//196 5//5
f 1//1 190//190 198//198
f 190//190 48//48 109//109
f 198//198 109//109 52//52
f 48//48 191//191 107//107
f 191//191 14//14 153//153
f 107//107 153//153 31//31
f 52//52 108//108 199//199
f 108//108 31//31 157//157
f 199//199 157//157 16//16
f 14//14 194//194 152//152
f 194//194 51//51 112//112
f 152//152 112//112 29//29
f 51//51 197//197 110//110
f 197//197 5//5 200//200
f 110//110 200//200 53//53
f 29//29 111//111 154//154
f 111//111 53//53 201//201
f 154//154 201//201 15//15
f 16//16 156//156 202//202
f 156//156 30//30 115//115
f 202//202 115//115 55//55
f 30//30 155//155 113//113
f 155//155 15//15 203//203
f 113//113 203//203 54//54
f 55//55 114//114 205//205
f 114//114 54//54 204//204
f 205//205 204//204 6//6
f 1//1 198//198 206//206
f 198//198 52//52 118//118
f 206//206 118//118 56//56
f 52//52 199//199 116//116
f 199//199 16//16 159//159
f 116//116 159//159 34//34
f 56//56 117//117 207//207
f 117//117 34//34 163//163
f 207//207 163//163 18//18
f 16//16 202//202 158//158
f 202//202 55//55 121//121
f 158//158 121//121 32//32
f 55//55 205//205 119//119
f 205//205 6//6 208//208
f 119//119 208//208 57//57
f 32//32 120//120 160//160
f 120//120 57//57 209//209
f 160//160 209//209 17//17
f 18//18 162//162 210//210
f 162//162 33//33 124//124
f 210//210 124//124 59//59
f 33//33 161//161 122//122
f 161//161 17//17 211//211
f 122//122 211//211 58//58
f 59//59 123//123 213//213
f 123//123 58//58 212//212
f 213//213 212//212 7//7
f 1//1 206//206 170//170
f 206//206 56//56 127//127
f 170//170 127//127 38//38
f 56//56 207//207 125//125
f 207//207 18//18 165//165
f 125//125 165//165 37//37
f 38//38 126//126 172//172
f 126//126 37//37 169//169
f 172//172 169//169 8//8
f 18//18 210//210 164//164
f 210//210 59//59 130//130
f 164//164 130//130 35//35
f 59//59 213//213 128//128
f 213//213 7//7 214//214
f 128//128 214//214 60//60
f 35//35 129//129 166//166
f 129//129 60//60 215//215
f 166//166 215//215 19//19
f 8//8 168//168 174//174
f 168//168 36//36 133//133
f 174//174 133//133 40//40
f 36//36 167//167 131//131
f 167//167 19//19 216//216
f 131//131 216//216 61//61
f 40//40 132//132 175//175
f 132//132 61//61 217//217
f 175//175 217//217 2//2
# 384 faces, 0 coords texture

# End of File
