####
#
# OBJ File Generated by Meshlab
#
####
# Object thin_mesh.obj
#
# Vertices: 8
# Faces: 6
#
####
vn -0.7070891 -0.0070709 -0.7070891
v -0.5000000 -0.0050000 -0.5000000
vn 0.4471957 -0.0089439 -0.8943915
v 0.5000000 -0.0050000 -0.5000000
vn -0.7071024 0.0035355 -0.7071024
v -0.5000000 0.0050000 -0.5000000
vn 0.8943915 0.0089439 -0.4471957
v 0.5000000 0.0050000 -0.5000000
vn -0.8943915 -0.0089439 0.4471957
v -0.5000000 -0.0050000 0.5000000
vn 0.7071024 -0.0035355 0.7071024
v 0.5000000 -0.0050000 0.5000000
vn -0.4471957 0.0089439 0.8943915
v -0.5000000 0.0050000 0.5000000
vn 0.7070891 0.0070709 0.7070891
v 0.5000000 0.0050000 0.5000000
# 8 vertices, 0 vertices normals

f 1//1 3//3 4//4 2//2
f 1//1 5//5 7//7 3//3
f 1//1 2//2 6//6 5//5
f 8//8 7//7 5//5 6//6
f 8//8 4//4 3//3 7//7
f 8//8 6//6 2//2 4//4
# 6 faces, 0 coords texture

# End of File
